<?xml version="1.0" encoding="UTF-8"?>
<!DOCTYPE svg PUBLIC "-//W3C//DTD SVG 1.1//EN" "http://www.w3.org/Graphics/SVG/1.1/DTD/svg11.dtd">
<!-- Creator: CorelDRAW -->
<svg xmlns="http://www.w3.org/2000/svg" xml:space="preserve" width="40.64mm" height="27.3302mm" version="1.1" style="shape-rendering:geometricPrecision; text-rendering:geometricPrecision; image-rendering:optimizeQuality; fill-rule:evenodd; clip-rule:evenodd"
viewBox="0 0 5616.19 3776.86"
 xmlns:xlink="http://www.w3.org/1999/xlink"
 xmlns:xodm="http://www.corel.com/coreldraw/odm/2003">
 <defs>
  <style type="text/css">
   <![CDATA[
    .fil2 {fill:none}
    .fil0 {fill:red}
    .fil1 {fill:#4D4D4D;fill-rule:nonzero}
   ]]>
  </style>
   <clipPath id="id0">
    <path d="M-0 0l5616.19 0 0 3776.86 -5616.19 0 0 -3776.86z"/>
   </clipPath>
 </defs>
 <g id="Camada_x0020_1">
  <metadata id="CorelCorpID_0Corel-Layer"/>
  <g>
  </g>
  <g style="clip-path:url(#id0)">
   <g id="_3047765342944">
    <g>
     <path class="fil0" d="M2796.92 536.59l245.85 0 0 1911.84 -245.85 0 -245.86 0 0 -1911.84 245.86 0zm410.49 344.27l0 1567.57 486.54 0 -8.79 -130.39c33.97,52.6 74.03,92.84 123.17,118.96 47.47,26.39 103.91,38.85 166.7,38.85 71.81,0 131.71,-11.41 178.23,-36.3 47.84,-26.33 82.83,-58.8 105.5,-101.49 22.47,-41.36 36.22,-85.07 41.36,-130.19 6.29,-45.3 8.82,-135.54 8.82,-269.39l0 -1057.61 -477.94 0 0 1066.32c0,122.72 -4.04,194.33 -11.53,218.1 -7.48,22.47 -27.61,33.69 -60.28,33.69 -36.22,0 -57.65,-11.22 -63.83,-35.17 -6.37,-23.7 -10.2,-99.98 -10.2,-228.03l0 -1054.9 -477.75 0zm-820.98 0l0 1567.57 -486.54 0 8.78 -130.39c-33.95,52.6 -74.02,92.84 -123.17,118.96 -47.46,26.39 -103.89,38.85 -166.7,38.85 -71.79,0 -131.7,-11.41 -178.21,-36.3 -47.84,-26.33 -82.83,-58.8 -105.5,-101.49 -22.47,-41.36 -36.22,-85.07 -41.36,-130.19 -6.29,-45.3 -8.82,-135.54 -8.82,-269.39l0 -1057.61 477.94 0 0 1066.32c0,122.72 4.04,194.33 11.51,218.1 7.49,22.47 27.62,33.69 60.29,33.69 36.21,0 57.65,-11.22 63.83,-35.17 6.37,-23.7 10.18,-99.98 10.18,-228.03l0 -1054.9 477.76 0zm-1750.76 -344.27l0 451.99c-39.03,-45.11 -82.65,-78.8 -131.8,-101.35 -47.62,-22.48 -101.64,-33.8 -158.08,-33.8 -65.16,0 -121.6,10.03 -169.33,30.06 -49.06,21.07 -85.36,50.07 -110.46,86.47 -25.18,37.55 -40.15,73.95 -45.11,108.98 -5.07,35.1 -7.67,110.26 -7.67,226.8l0 705.27c0,115.42 7.67,200.7 22.64,256.87 15.06,56.33 51.39,105.19 107.75,146.66 56.99,41.38 124.57,61.3 202.18,61.3 56.44,0 109.24,-11.41 156.97,-36.3 49.03,-23.77 92.65,-60.1 132.9,-108.97l31.37 117.85 446.95 0 0 -1911.84 -478.32 0zm-145.53 790.37c0,-81.44 5.14,-134.02 15.06,-159.2 11.3,-24.92 31.45,-37.55 61.59,-37.55 28.62,0 47.54,11.41 56.24,32.85 8.89,22.29 12.63,76.28 12.63,163.9l0 675.27c0,83.94 -5.14,137.86 -15.15,161.56 -9.85,23.95 -28.66,35.17 -57.59,35.17 -30.14,0 -50.07,-12.44 -59.06,-36.4 -8.6,-24.92 -13.74,-82.65 -13.74,-176.45l0 -659.16zm5462.92 -872.76c70.99,0 130.39,26.77 179.29,75.88 49.16,51.34 73.89,110.73 73.89,179.49 0,46.42 -12.11,90.59 -36.84,129.82 -24.36,39.23 -53.73,71.29 -93.49,90.95 -39.8,21.99 -81.38,31.7 -122.85,31.7 -73.68,0 -133.08,-24.38 -181.84,-76.3 -49.53,-48.95 -74.04,-107.63 -74.04,-176.17 0,-49.31 12.41,-91.3 37.35,-133.08 24.23,-38.87 55.93,-68.75 93.34,-90.59 38.87,-19.6 81.23,-31.7 125.19,-31.7zm0 41.79c-61.22,0 -112.71,22.03 -155.07,66 -39.23,41.62 -59.24,90.72 -59.24,147.58 0,61.07 23.12,110.18 67.51,152.17 40.85,39.23 90.16,58.53 146.8,58.53 58.32,0 110.39,-22.19 152.17,-66 39.81,-39.45 59.24,-88.4 59.24,-144.69 0,-61.58 -21.99,-113.28 -66.73,-154.92 -41.62,-39.39 -90.93,-58.66 -144.67,-58.66zm-112.71 352.91l43.96 0 0 -115.31 26.98 0 36.48 10.07c9.51,7.55 24.57,29.52 44.37,61.63l24.74 43.6 53.9 0 -34.66 -54.05c-14.3,-21.67 -26.56,-41.62 -38.83,-51.19l-24.94 -17.4c22.19,-2.03 42,-9.52 56.81,-24.23 14.86,-12.26 22.39,-31.85 22.39,-51.86l-12.47 -41.62 -34.3 -24.53c-15.23,-4.63 -36.84,-7.53 -68.75,-7.53l-95.67 0 0 272.41zm43.96 -154.18l53.73 0c25.11,0 41.64,-2.76 51.5,-10.09l15.23 -31.91 -7.49 -22.14 -19.43 -14.7c-7.53,-2.18 -22.19,-2.18 -41.83,-2.18l-51.71 0 0 81.02zm-926.13 -158.12l0 451.99c39.03,-45.11 82.65,-78.8 131.78,-101.35 47.64,-22.48 101.66,-33.8 158.09,-33.8 65.16,0 121.6,10.03 169.33,30.06 49.06,21.07 85.36,50.07 110.46,86.47 25.18,37.55 40.15,73.95 45.11,108.98 5.07,35.1 7.67,110.26 7.67,226.8l0 705.27c0,115.42 -7.67,200.7 -22.64,256.87 -15.06,56.33 -51.39,105.19 -107.75,146.66 -56.99,41.38 -124.57,61.3 -202.18,61.3 -56.44,0 -109.24,-11.41 -156.97,-36.3 -49.03,-23.77 -92.66,-60.1 -132.9,-108.97l-31.37 117.85 -446.95 0 0 -1911.84 478.32 0zm145.53 790.37c0,-81.44 -5.14,-134.02 -15.06,-159.2 -11.32,-24.92 -31.45,-37.55 -61.59,-37.55 -28.63,0 -47.54,11.41 -56.24,32.85 -8.9,22.29 -12.63,76.28 -12.63,163.9l0 675.27c0,83.94 5.14,137.86 15.15,161.56 9.84,23.95 28.66,35.17 57.59,35.17 30.13,0 50.05,-12.44 59.05,-36.4 8.61,-24.92 13.75,-82.65 13.75,-176.45l0 -659.16z"/>
     <path class="fil1" d="M487.24 3038.66l30.47 -227.29 -118.67 0 26.3 -63.07 291.53 0 -26.35 63.07 -106.59 0 -30.47 227.29 -66.22 0zm487.84 -175.78l-24.45 59.15 -178.19 0 -6.98 51.99 210.12 0 -26.75 64.65 -258.1 0 38.93 -290.36 276.19 0 -26.75 64.63 -192.03 0 -6.7 49.94 194.71 0zm269.09 175.78l-182.25 0c-27.06,0 -47.48,-9.66 -61.58,-29.23 -13.69,-19.55 -18.77,-41.86 -15.35,-67.38l13 -97.07c3.52,-26.24 14.62,-48.77 33.32,-67.95 18.88,-19.07 42.07,-28.73 69.54,-28.73l200.08 0 -26.38 63.78 -165.32 0c-11.55,0 -21.86,4.08 -30.82,12.17 -8.62,8.02 -13.65,18.6 -15.41,31.72l-9.87 73.67c-1.77,13.11 0.64,23.64 7.12,31.49 6.63,7.77 15.68,11.72 27.39,11.94l183.16 0 -26.63 65.59zm336.96 0l-66.86 0 -147.44 -189.37 -25.37 189.37 -66.66 0 38.92 -290.36 66.68 0 147.33 190.07 25.48 -190.07 66.86 0 -38.93 290.36zm44.51 -193.68c3.52,-26.24 14.62,-48.77 33.32,-67.95 18.88,-19.07 42.07,-28.73 69.54,-28.73l147.69 0c27.8,0 48.41,9.66 61.79,28.73 13.65,18.95 18.73,41.25 15.24,67.25l-13.21 98.48c-3.34,25.07 -14.4,47.36 -33.32,66.68 -18.95,19.57 -41.94,29.23 -69.41,29.23l-147.72 0c-27.07,0 -47.47,-9.66 -61.57,-29.23 -13.69,-19.55 -18.77,-41.86 -15.35,-67.38l13 -97.07zm203.5 128.09c12.29,-0.22 22.68,-4.31 30.79,-11.94 8.49,-7.61 13.78,-18.21 15.55,-31.49l9.94 -74.13c1.63,-13.53 -0.82,-24.11 -7.08,-31.74 -6.41,-8 -15.52,-11.94 -27.58,-11.94l-113.68 0c-11.93,0 -22.03,3.94 -30.64,11.94 -8.13,7.85 -13.35,18.38 -15.53,31.74l-10.02 74.76c-1.73,12.87 0.69,23.24 7.14,30.86 6.87,8.02 15.91,11.94 27.43,11.94l113.68 0zm388.43 0l-27.42 65.59 -244.45 0 38.92 -290.36 66.28 0 -30.14 224.77 196.82 0zm14.61 -128.09c3.51,-26.24 14.62,-48.77 33.3,-67.95 18.88,-19.07 42.08,-28.73 69.54,-28.73l147.72 0c27.79,0 48.4,9.66 61.76,28.73 13.65,18.95 18.74,41.25 15.26,67.25l-13.21 98.48c-3.36,25.07 -14.41,47.36 -33.33,66.68 -18.95,19.57 -41.94,29.23 -69.4,29.23l-147.72 0c-27.06,0 -47.47,-9.66 -61.57,-29.23 -13.71,-19.55 -18.78,-41.86 -15.37,-67.38l13.02 -97.07zm203.49 128.09c12.29,-0.22 22.69,-4.31 30.79,-11.94 8.5,-7.61 13.78,-18.21 15.56,-31.49l9.94 -74.13c1.62,-13.53 -0.83,-24.11 -7.09,-31.74 -6.4,-8 -15.51,-11.94 -27.57,-11.94l-113.68 0c-11.93,0 -22.03,3.94 -30.64,11.94 -8.14,7.85 -13.36,18.38 -15.52,31.74l-10.03 74.76c-1.74,12.87 0.68,23.24 7.13,30.86 6.87,8.02 15.91,11.94 27.45,11.94l113.66 0zm134.85 -128.09c3.52,-26.24 14.62,-48.77 33.32,-67.95 18.88,-19.07 42.07,-28.73 69.54,-28.73l225.64 0 -26.35 63.53 -192.28 0c-10.93,0 -20.87,4.17 -29.42,12.19 -8.62,8.08 -13.64,18.61 -15.41,31.72l-9.89 73.91c-1.77,13.11 0.64,23.64 7.13,31.49 6.62,7.77 15.67,11.72 27.36,11.94l126.52 0c10.79,-0.22 18.24,-2.52 22.47,-7.14 4.73,-4.8 7.66,-12.64 9.18,-23.88l2.74 -20.49 -82.02 0 23.7 -57.96 132.38 0 -12.24 91.33c-3.08,23.01 -13.25,42.58 -30.55,58.68 -17.34,16.32 -36.93,24.57 -58.68,25.05l-159.19 0c-27.07,0 -47.48,-9.66 -61.58,-29.23 -13.69,-19.55 -18.77,-41.86 -15.35,-67.38l13 -97.07zm422.71 -96.68l-38.92 290.36 -66.08 0 38.93 -290.36 66.07 0zm59.91 247.55l-26.51 42.81 -74.86 0 183.94 -290.36 73.35 0 106.01 290.36 -76.63 0 -15.16 -42.81 -170.14 0zm150.84 -53.55l-42.73 -118.53 -74.24 118.53 116.97 0zm566.46 -72.73l-26.75 64.63 -158.78 0 -14.01 104.46 -66.28 0 38.92 -290.36 274.44 0 -26.7 64.63 -190.13 0 -7.59 56.63 176.89 0zm289.45 103.51l-27.4 65.59 -244.46 0 38.93 -290.36 66.26 0 -30.14 224.77 196.82 0zm324.88 -224.77l-25.98 193.75c-3.41,25.52 -14.47,47.83 -33.4,67.38 -18.96,19.57 -41.94,29.23 -69.41,29.23l-113.69 0c-27.07,0 -47.47,-9.66 -61.57,-29.23 -13.69,-19.55 -18.78,-41.86 -15.34,-67.38l25.97 -193.75 66.6 0 -24.39 181.97c-1.73,12.87 0.76,23.24 7.2,30.86 6.8,8.02 15.92,11.94 27.38,11.94l79.92 0c11.94,0 22.03,-3.92 30.6,-11.94 8.49,-7.61 13.75,-17.99 15.46,-30.86l24.41 -181.97 66.26 0zm88.44 0l-38.93 290.36 -66.07 0 38.92 -290.36 66.08 0zm26.23 0l232.59 0c27.79,0 48.4,9.66 61.79,28.73 13.65,18.95 18.73,41.25 15.24,67.25l-13.21 98.48c-3.37,25.07 -14.4,47.36 -33.19,66.68 -18.96,19.57 -42.08,29.23 -69.54,29.23l-232.61 0 38.93 -290.36zm36.14 224.77l149.42 0c12.08,-0.22 22.25,-4.17 30.58,-11.94 8.72,-7.85 14,-18.38 15.75,-31.49l9.87 -73.67c1.82,-13.58 -0.64,-24.1 -7.08,-31.72 -6.38,-8.1 -15.63,-12.17 -27.56,-12.17l-149.4 0 -21.59 161zm336.6 22.77l-26.52 42.81 -74.87 0 183.95 -290.36 73.37 0 106.01 290.36 -76.64 0 -15.17 -42.81 -170.12 0zm150.82 -53.55l-42.74 -118.53 -74.22 118.53 116.97 0z"/>
    </g>
   </g>
  </g>
  <polygon class="fil2" points="-0,0 5616.19,0 5616.19,3776.86 -0,3776.86 "/>
 </g>
</svg>
